<svg viewBox="0 0 37.0347 34.5659" xmlns="http://www.w3.org/2000/svg" xmlns:xlink="http://www.w3.org/1999/xlink" width="37.034668" height="34.565918" fill="none" customFrame="#000000">
	<path id="Vector" d="M35.9469 18.3713C36.6413 19.0657 37.0348 20.007 37.0348 20.9869C37.0348 21.9668 36.6413 22.9081 35.9469 23.6025C35.2525 24.2969 34.3112 24.6904 33.3313 24.6904L3.70348 24.6904C2.72129 24.6904 1.77921 24.2969 1.08481 23.6025C0.390409 22.9081 0 21.9668 0 20.9869C0 20.007 0.390409 19.0657 1.08481 18.3713C1.77921 17.6769 2.72129 17.2834 3.70348 17.2834L33.3313 17.2834C34.3112 17.2834 35.2525 17.6769 35.9469 18.3713ZM35.4377 27.522C35.6692 27.7535 35.8003 28.0698 35.8003 28.3939L35.8003 29.6283C35.8003 30.8706 35.2834 32.1976 34.3575 33.1235C33.4316 34.0494 32.1046 34.5663 30.8624 34.5663L6.17247 34.5663C4.86314 34.5663 3.60704 34.0494 2.68117 33.1235C1.75452 32.1976 1.23449 30.8706 1.23449 29.6283L1.23449 28.3939C1.23449 28.0698 1.36489 27.7535 1.59636 27.522C1.82782 27.2905 2.14185 27.1594 2.46899 27.1594L34.5658 27.1594C34.8899 27.1594 35.2062 27.2905 35.4377 27.522ZM2.65339 14.5675C2.30928 14.3978 2.00837 14.1586 1.77227 13.8577C1.53617 13.5568 1.3726 13.2096 1.29236 12.8392C1.21212 12.4612 1.21906 12.0754 1.31088 11.705C3.00754 5.01716 10.0688 0.000488281 18.5174 0.000488281C26.966 0.000488281 34.0257 5.01716 35.7232 11.705C35.8158 12.0754 35.8235 12.4612 35.7386 12.8392C35.6614 13.2096 35.4994 13.5568 35.2602 13.8577C34.9593 14.1586 34.7279 14.3978 34.3807 14.5675C34.0412 14.7295 33.6631 14.8144 33.2773 14.8144L3.75518 14.8144C3.37403 14.8144 2.99673 14.7295 2.65339 14.5675ZM27.5215 6.53559C27.29 6.76706 27.1589 7.0834 27.1589 7.40745C27.1589 7.65435 27.2283 7.89353 27.3672 8.09414C27.5061 8.29475 27.6295 8.45677 27.9227 8.54936C28.1465 8.57251 28.3934 8.66509 28.6325 8.6188C28.8717 8.57251 29.0955 8.45677 29.2652 8.27931C29.4427 8.10957 29.5584 7.88582 29.6047 7.64664C29.651 7.40745 29.5584 7.16055 29.5353 6.9368C29.4427 6.64361 29.2807 6.52016 29.0801 6.38128C28.8794 6.2424 28.6403 6.10352 28.3934 6.10352C28.0693 6.10352 27.753 6.30412 27.5215 6.53559ZM17.6455 4.06583C17.4141 4.2973 17.2829 4.61132 17.2829 4.93847C17.2829 5.18228 17.3524 5.42455 17.4912 5.62515C17.6301 5.82576 17.7536 5.98779 18.0468 6.08037C18.2705 6.10352 18.5174 6.19611 18.7566 6.14981C18.9958 6.10352 19.2195 5.98779 19.3893 5.81033C19.5667 5.64058 19.6825 5.41683 19.7288 5.17919C19.7751 4.94001 19.6825 4.69157 19.6593 4.46627C19.5667 4.2402 19.4047 4.04731 19.2041 3.91229C19.0035 3.7765 18.7643 3.63453 18.5174 3.63453C18.1934 3.63453 17.877 3.83436 17.6455 4.06583ZM7.7696 6.53559C7.53813 6.76706 7.40696 7.0834 7.40696 7.40745C7.40696 7.65435 7.4764 7.89353 7.61529 8.09414C7.75417 8.29475 7.87762 8.45677 8.17081 8.54936C8.39456 8.57251 8.64146 8.66509 8.88064 8.6188C9.11983 8.57251 9.34358 8.45677 9.51332 8.27931C9.69078 8.10957 9.80651 7.88582 9.85281 7.64664C9.8991 7.40745 9.80651 7.16055 9.78337 6.9368C9.69078 6.64361 9.52875 6.52016 9.32815 6.38128C9.12754 6.2424 8.88836 6.10352 8.64146 6.10352C8.3174 6.10352 8.00106 6.30412 7.7696 6.53559Z" fill="rgb(255,204,0)" fill-rule="nonzero" />
</svg>
