<svg viewBox="0 0 40.3818 40.3818" xmlns="http://www.w3.org/2000/svg" xmlns:xlink="http://www.w3.org/1999/xlink" width="40.381836" height="40.381836" fill="none" customFrame="#000000">
	<path id="Vector" d="M20.1908 0C9.03703 0 0 9.03703 0 20.1908C0 31.3447 9.03703 40.3817 20.1908 40.3817C31.3447 40.3817 40.3817 31.3447 40.3817 20.1908C40.3817 9.03703 31.3447 0 20.1908 0ZM27.7209 25.4828L26.0926 27.5182C25.9857 27.6518 25.8536 27.763 25.7038 27.8455C25.5539 27.9281 25.3893 27.9803 25.2192 27.9992C25.0492 28.0181 24.8771 28.0033 24.7128 27.9557C24.5485 27.9081 24.3952 27.8286 24.2616 27.7217L18.8068 23.6738C18.4257 23.3686 18.118 22.9817 17.9066 22.5415C17.6952 22.1014 17.5855 21.6194 17.5856 21.1312L17.5856 8.46713C17.5856 8.12165 17.7228 7.79032 17.9671 7.54602C18.2114 7.30173 18.5427 7.16449 18.8882 7.16449L21.4935 7.16449C21.839 7.16449 22.1703 7.30173 22.4146 7.54602C22.6589 7.79032 22.7961 8.12165 22.7961 8.46713L22.7961 20.1908L27.5182 23.651C27.6518 23.7579 27.7631 23.8901 27.8456 24.04C27.9281 24.19 27.9803 24.3547 27.9991 24.5249C28.018 24.695 28.0031 24.8672 27.9553 25.0315C27.9076 25.1959 27.8279 25.3492 27.7209 25.4828Z" fill="rgb(255,204,0)" fill-rule="nonzero" />
</svg>
