<svg viewBox="0 0 26.2432 26.2434" xmlns="http://www.w3.org/2000/svg" xmlns:xlink="http://www.w3.org/1999/xlink" width="26.243164" height="26.243408" fill="none" customFrame="#000000">
	<g id="Group">
		<path id="Vector" d="M13.1216 6.29614C9.4179 6.29614 6.34912 9.31202 6.34912 13.0686C6.34912 16.8252 9.365 19.8411 13.1216 19.8411C16.8782 19.8411 19.8941 16.7723 19.8941 13.0686C19.8941 9.36493 16.8253 6.29614 13.1216 6.29614ZM13.1216 17.4073C10.7407 17.4073 8.78298 15.4496 8.78298 13.0686C8.78298 10.6877 10.7407 8.73 13.1216 8.73C15.5026 8.73 17.4602 10.6877 17.4602 13.0686C17.4602 15.4496 15.5026 17.4073 13.1216 17.4073Z" fill="rgb(0,0,0)" fill-rule="nonzero" />
		<path id="Vector" d="M20.1589 7.67205C21.0063 7.67205 21.6933 6.98508 21.6933 6.13766C21.6933 5.29024 21.0063 4.60327 20.1589 4.60327C19.3115 4.60327 18.6245 5.29024 18.6245 6.13766C18.6245 6.98508 19.3115 7.67205 20.1589 7.67205Z" fill="rgb(0,0,0)" fill-rule="evenodd" />
		<path id="Vector" d="M24.127 2.16956C22.7513 0.740985 20.7936 0.000244141 18.5714 0.000244141L7.67196 0.000244141C3.06878 0.000244141 0 3.06903 0 7.6722L0 18.5188C0 20.7939 0.740741 22.7516 2.22222 24.1801C3.65079 25.5558 5.55556 26.2436 7.72487 26.2436L18.5185 26.2436C20.7937 26.2436 22.6984 25.5029 24.0741 24.1801C25.5026 22.8045 26.2434 20.8468 26.2434 18.5717L26.2434 7.6722C26.2434 5.44998 25.5026 3.54522 24.127 2.16956ZM23.9153 18.5717C23.9153 20.2119 23.3333 21.5346 22.381 22.4341C21.4286 23.3336 20.1058 23.8098 18.5185 23.8098L7.72487 23.8098C6.13757 23.8098 4.81481 23.3336 3.86243 22.4341C2.91005 21.4817 2.43386 20.159 2.43386 18.5188L2.43386 7.6722C2.43386 6.0849 2.91005 4.76215 3.86243 3.80977C4.7619 2.9103 6.13757 2.43411 7.72487 2.43411L18.6243 2.43411C20.2116 2.43411 21.5344 2.9103 22.4868 3.86268C23.3862 4.81506 23.9153 6.13781 23.9153 7.6722L23.9153 18.5717Z" fill="rgb(0,0,0)" fill-rule="nonzero" />
	</g>
</svg>
