<svg viewBox="0 0 27.0332 22.3838" xmlns="http://www.w3.org/2000/svg" xmlns:xlink="http://www.w3.org/1999/xlink" width="27.033203" height="22.383789" fill="none" customFrame="#000000">
	<path id="Vector" d="M26.0683 2.50772C25.11 2.9337 24.0786 3.22103 22.9965 3.34962C24.1014 2.68816 24.9486 1.64041 25.3481 0.390524C24.3146 1.00383 23.1706 1.44886 21.9519 1.6891C20.9767 0.649815 19.5865 0 18.0483 0C15.095 0 12.7005 2.39448 12.7005 5.34828C12.7005 5.76685 12.7476 6.17484 12.8392 6.56695C8.39416 6.34364 4.45293 4.21481 1.81504 0.978957C1.35466 1.76847 1.09114 2.6871 1.09114 3.66818C1.09114 5.52343 2.03517 7.16067 3.47027 8.11952C2.59397 8.09148 1.769 7.85071 1.04775 7.45013C1.04722 7.47235 1.04722 7.49511 1.04722 7.51786C1.04722 10.1087 2.89083 12.2698 5.3377 12.7619C4.88896 12.8836 4.41642 12.9492 3.92853 12.9492C3.58351 12.9492 3.24855 12.9159 2.92205 12.8529C3.60309 14.9775 5.57794 16.5243 7.91791 16.5671C6.08752 18.0017 3.78195 18.8568 1.27582 18.8568C0.844549 18.8568 0.41857 18.8314 0 18.7817C2.36749 20.2999 5.17842 21.1846 8.19837 21.1846C18.0361 21.1846 23.4151 13.0355 23.4151 5.96793C23.4151 5.73616 23.4103 5.50491 23.4002 5.27525C24.4448 4.52278 25.3518 3.58034 26.0683 2.50772Z" fill="rgb(0,0,0)" fill-rule="nonzero" transform="matrix(0.9989,-0.0468974,0.0468974,0.9989,0,1.22266)" />
</svg>
